# xmcd CD database file
#
# Track frame offsets:
#	150
#	12800
#	25592
#	38317
#	50167
#	62222
#	72900
#	86095
#	100772
#	113772
#	126405
#	138282
#
# Disc length: 2031 seconds
#
# Revision: 0
# Processed by: cddbd v1.5.1PL2 Copyright (c) Steve Scherf et al.
# Submitted via: CDex 1.51
#
DISCID=9a07ed0c
DTITLE=Jimmy Reed - I'm Jimmy Reed
DYEAR=1958
DGENRE=Blues
TTITLE0=Honest I Do
TTITLE1=Go On To School
TTITLE2=My First Plea
TTITLE3=Boogie In The Dark
TTITLE4=You Got Me Crying
TTITLE5=Ain't That Lovin' You Baby
TTITLE6=You Got Me Dizzy
TTITLE7=Little Rain
TTITLE8=Can't Stand To See You Go
TTITLE9=Roll And Rhumba
TTITLE10=You're Something Else
TTITLE11=You Don't Have To Go
EXTD=YEAR: 1958
EXTT0=
EXTT1=
EXTT2=
EXTT3=
EXTT4=
EXTT5=
EXTT6=
EXTT7=
EXTT8=
EXTT9=
EXTT10=
EXTT11=
PLAYORDER=
